<?xml version="1.0" standalone="no"?>
<!DOCTYPE svg PUBLIC "-//W3C//DTD SVG 20010904//EN"
 "http://www.w3.org/TR/2001/REC-SVG-20010904/DTD/svg10.dtd">
<svg version="1.0" xmlns="http://www.w3.org/2000/svg"
 width="512.000000pt" height="512.000000pt" viewBox="0 0 512.000000 512.000000"
 preserveAspectRatio="xMidYMid meet">
<metadata>
Created by potrace 1.11, written by Peter Selinger 2001-2013
</metadata>
<g transform="translate(0.000000,512.000000) scale(0.100000,-0.100000)"
fill="#000000" stroke="none">
<path d="M2320 5109 c-491 -47 -981 -246 -1366 -557 -599 -482 -954 -1224
-954 -1992 0 -577 204 -1155 568 -1606 482 -599 1224 -954 1992 -954 577 0
1155 204 1606 568 599 482 954 1224 954 1992 0 577 -204 1155 -568 1606 -433
538 -1071 879 -1767 944 -125 11 -340 11 -465 -1z m1996 -1076 c-139 -456
-351 -1531 -501 -2545 -19 -127 -35 -231 -37 -232 -8 -6 -613 -71 -616 -66 -1
3 47 254 108 557 60 303 112 576 116 606 l7 55 -39 -4 c-22 -2 -106 -11 -187
-18 -82 -8 -151 -17 -154 -20 -4 -3 -32 -146 -64 -318 -32 -172 -82 -431 -111
-576 -46 -234 -54 -263 -72 -268 -69 -17 -590 -123 -593 -121 -1 2 42 242 97
533 54 291 122 662 150 824 28 162 69 396 91 520 22 124 68 400 103 615 l63
389 34 7 c54 11 598 43 605 36 3 -3 -10 -72 -29 -154 -78 -324 -221 -1002
-214 -1010 4 -4 365 35 383 42 7 2 16 30 22 62 6 32 36 200 67 373 57 320 119
621 136 651 10 19 25 22 374 54 132 12 246 23 253 24 8 1 11 -6 8 -16z m-1742
-50 c-16 -53 -79 -316 -91 -383 l-9 -45 -74 -6 c-41 -4 -175 -7 -297 -8 -123
0 -223 -2 -223 -4 0 -1 -31 -162 -69 -357 -39 -195 -69 -355 -68 -355 1 -1 58
2 127 6 69 4 191 8 272 8 l148 1 -5 -27 c-3 -16 -16 -111 -30 -212 -14 -101
-28 -187 -30 -191 -3 -4 -103 -11 -222 -14 -120 -4 -241 -9 -269 -12 l-50 -5
-67 -362 c-36 -198 -65 -363 -63 -365 3 -2 132 17 287 42 156 24 285 43 288
41 4 -5 -34 -443 -40 -449 -5 -5 -1239 -196 -1268 -196 -17 0 -21 4 -17 18 3
9 121 645 262 1412 141 767 259 1398 263 1402 6 7 1107 105 1203 107 l56 1
-14 -47z"/>
</g>
</svg>
