<svg xmlns="http://www.w3.org/2000/svg" aria-hidden="true" focusable="false" data-prefix="fas" data-icon="slash" role="img" width="640" height="512"><rect id="backgroundrect" width="100%" height="100%" x="0" y="0" fill="none" stroke="none"/><g class="currentLayer" style=""><title>Layer 1</title><path fill="currentColor" d="M240.7518768310547,425.43205547332764 h20 V280.97404766082764 H240.7518768310547 c-11.045999526977539,0 -20,-8.954000473022461 -20,-20 V213.2029905319214 c0,-11.045999526977539 8.954000473022461,-20 20,-20 h112 c11.045999526977539,0 20,8.954000473022461 20,20 v212.22900390625 h20 c11.045999526977539,0 20,8.954000473022461 20,20 V493.20305156707764 c0,11.045999526977539 -8.954000473022461,20 -20,20 H240.7518768310547 c-11.045999526977539,0 -20,-8.954000473022461 -20,-20 v-47.770999908447266 c0,-11.045999526977539 8.954000473022461,-20 20,-20 zM316.75189208984375,1.2030076384544373 C276.98687744140625,1.2030076384544373 244.7518768310547,33.43801021575928 244.7518768310547,73.20299816131592 s32.23500061035156,72 72,72 s72,-32.23500061035156 72,-72 S356.515869140625,1.2030076384544373 316.75189208984375,1.2030076384544373 z" class="" id="svg_2"/></g></svg>