<?xml version="1.0" encoding="utf-8"?>
<!-- Svg Vector Icons : http://www.onlinewebfonts.com/icon -->
<!DOCTYPE svg PUBLIC "-//W3C//DTD SVG 1.1//EN" "http://www.w3.org/Graphics/SVG/1.1/DTD/svg11.dtd">
<svg version="1.1" xmlns="http://www.w3.org/2000/svg" xmlns:xlink="http://www.w3.org/1999/xlink" x="0px" y="0px" viewBox="0 0 1000 1000" enable-background="new 0 0 1000 1000" xml:space="preserve">
<metadata> Svg Vector Icons : http://www.onlinewebfonts.com/icon </metadata>
<g><g><g><path d="M500,264.9c128.5,0,232.6,104.1,232.6,232.6c0,128.4-104.1,232.6-232.6,232.6c-128.4,0-232.6-104.1-232.6-232.6C267.4,369.1,371.5,264.9,500,264.9z"/><path d="M500,10c-61,0-119.3,11.7-173.2,32.2c11.8,12,21.5,25.9,29,41.2C401,67.6,449.5,58.7,500,58.7c243.4,0,441.3,198,441.3,441.3S743.4,941.3,500,941.3c-243.3,0-441.3-198-441.3-441.3c0-82,22.9-158.5,61.9-224.3c-13.4-10.2-25.2-22.5-34.7-36.5C38.1,314.8,10,404.1,10,500c0,270.2,219.8,490,490,490c270.2,0,490-219.8,490-490C990,229.8,770.2,10,500,10z"/><path d="M215.5,55.8c55.5,0,100.4,45,100.4,100.4s-45,100.4-100.4,100.4c-55.5,0-100.4-45-100.4-100.4S160,55.8,215.5,55.8z"/></g></g><g></g><g></g><g></g><g></g><g></g><g></g><g></g><g></g><g></g><g></g><g></g><g></g><g></g><g></g><g></g></g>
</svg>